<mxfile><diagram id="C5RBs43oDa-KdzZeNtuy" name="Page-1"><mxGraphModel dx="1227" dy="732" grid="1" gridSize="10" guides="1" tooltips="1" connect="1" arrows="1" fold="1" page="1" pageScale="1" pageWidth="827" pageHeight="1169" math="0" shadow="0"><root><mxCell id="WIyWlLk6GJQsqaUBKTNV-0"/><mxCell id="WIyWlLk6GJQsqaUBKTNV-1" parent="WIyWlLk6GJQsqaUBKTNV-0"/><mxCell id="ebxPDyALgDICZ6asir6X-2" value="" style="edgeStyle=orthogonalEdgeStyle;rounded=0;orthogonalLoop=1;jettySize=auto;html=1;" parent="WIyWlLk6GJQsqaUBKTNV-1" source="ebxPDyALgDICZ6asir6X-0" target="ebxPDyALgDICZ6asir6X-1" edge="1"><mxGeometry relative="1" as="geometry"/></mxCell><mxCell id="ebxPDyALgDICZ6asir6X-0" value="Начало" style="ellipse;whiteSpace=wrap;html=1;fillColor=#008a00;strokeColor=#005700;fontColor=#ffffff;" parent="WIyWlLk6GJQsqaUBKTNV-1" vertex="1"><mxGeometry x="135" y="220" width="120" height="80" as="geometry"/></mxCell><mxCell id="NzhpzaknC7OG-vmffmDY-1" value="" style="edgeStyle=orthogonalEdgeStyle;rounded=0;orthogonalLoop=1;jettySize=auto;html=1;" parent="WIyWlLk6GJQsqaUBKTNV-1" source="ebxPDyALgDICZ6asir6X-1" target="NzhpzaknC7OG-vmffmDY-0" edge="1"><mxGeometry relative="1" as="geometry"/></mxCell><mxCell id="ebxPDyALgDICZ6asir6X-1" value="array[] = {....}&lt;br&gt;counter = 0" style="shape=parallelogram;perimeter=parallelogramPerimeter;whiteSpace=wrap;html=1;fixedSize=1;fillColor=#6a00ff;strokeColor=#3700CC;fontColor=#ffffff;" parent="WIyWlLk6GJQsqaUBKTNV-1" vertex="1"><mxGeometry x="115" y="340" width="160" height="90" as="geometry"/></mxCell><mxCell id="ebxPDyALgDICZ6asir6X-7" value="Конец" style="ellipse;whiteSpace=wrap;html=1;fillColor=#e51400;strokeColor=#B20000;fontColor=#ffffff;" parent="WIyWlLk6GJQsqaUBKTNV-1" vertex="1"><mxGeometry x="680" y="840" width="120" height="60" as="geometry"/></mxCell><mxCell id="ebxPDyALgDICZ6asir6X-10" value="Программа, которая из имеющегося массива строк &lt;br&gt;формирует массив из строк, длина которых &lt;br&gt;меньше либо равна 3 символа&lt;br&gt;" style="text;html=1;align=center;verticalAlign=middle;resizable=0;points=[];autosize=1;strokeColor=none;fillColor=none;strokeWidth=3;fontSize=18;" parent="WIyWlLk6GJQsqaUBKTNV-1" vertex="1"><mxGeometry x="175" y="65" width="450" height="80" as="geometry"/></mxCell><mxCell id="NzhpzaknC7OG-vmffmDY-7" value="" style="edgeStyle=orthogonalEdgeStyle;rounded=0;orthogonalLoop=1;jettySize=auto;html=1;" parent="WIyWlLk6GJQsqaUBKTNV-1" source="NzhpzaknC7OG-vmffmDY-0" target="NzhpzaknC7OG-vmffmDY-6" edge="1"><mxGeometry relative="1" as="geometry"/></mxCell><mxCell id="NzhpzaknC7OG-vmffmDY-10" style="edgeStyle=orthogonalEdgeStyle;rounded=0;orthogonalLoop=1;jettySize=auto;html=1;entryX=0;entryY=0.5;entryDx=0;entryDy=0;exitX=0;exitY=0.5;exitDx=0;exitDy=0;" parent="WIyWlLk6GJQsqaUBKTNV-1" source="NzhpzaknC7OG-vmffmDY-0" target="NzhpzaknC7OG-vmffmDY-5" edge="1"><mxGeometry relative="1" as="geometry"><mxPoint x="80" y="560" as="targetPoint"/><Array as="points"><mxPoint x="60" y="635"/><mxPoint x="60" y="520"/></Array></mxGeometry></mxCell><mxCell id="NzhpzaknC7OG-vmffmDY-0" value="array[i].length &amp;lt;= 3" style="rhombus;whiteSpace=wrap;html=1;fillColor=#a0522d;strokeColor=#6D1F00;fontColor=#ffffff;" parent="WIyWlLk6GJQsqaUBKTNV-1" vertex="1"><mxGeometry x="122.5" y="595" width="145" height="80" as="geometry"/></mxCell><mxCell id="NzhpzaknC7OG-vmffmDY-4" value="Нет" style="text;html=1;strokeColor=none;fillColor=none;align=center;verticalAlign=middle;whiteSpace=wrap;rounded=0;" parent="WIyWlLk6GJQsqaUBKTNV-1" vertex="1"><mxGeometry x="55" y="610" width="60" height="30" as="geometry"/></mxCell><mxCell id="NzhpzaknC7OG-vmffmDY-13" value="" style="edgeStyle=orthogonalEdgeStyle;rounded=0;orthogonalLoop=1;jettySize=auto;html=1;" parent="WIyWlLk6GJQsqaUBKTNV-1" source="NzhpzaknC7OG-vmffmDY-5" target="NzhpzaknC7OG-vmffmDY-12" edge="1"><mxGeometry relative="1" as="geometry"/></mxCell><mxCell id="NzhpzaknC7OG-vmffmDY-5" value="i = 0, i &amp;lt; array.length, i++" style="shape=hexagon;perimeter=hexagonPerimeter2;whiteSpace=wrap;html=1;fixedSize=1;fillColor=#1ba1e2;strokeColor=#006EAF;fontColor=#ffffff;" parent="WIyWlLk6GJQsqaUBKTNV-1" vertex="1"><mxGeometry x="80" y="480" width="230" height="80" as="geometry"/></mxCell><mxCell id="NzhpzaknC7OG-vmffmDY-8" style="edgeStyle=orthogonalEdgeStyle;rounded=0;orthogonalLoop=1;jettySize=auto;html=1;entryX=0;entryY=0.5;entryDx=0;entryDy=0;" parent="WIyWlLk6GJQsqaUBKTNV-1" source="NzhpzaknC7OG-vmffmDY-6" target="NzhpzaknC7OG-vmffmDY-5" edge="1"><mxGeometry relative="1" as="geometry"><Array as="points"><mxPoint x="195" y="790"/><mxPoint x="60" y="790"/><mxPoint x="60" y="520"/></Array></mxGeometry></mxCell><mxCell id="NzhpzaknC7OG-vmffmDY-6" value="counter++" style="whiteSpace=wrap;html=1;" parent="WIyWlLk6GJQsqaUBKTNV-1" vertex="1"><mxGeometry x="135" y="710" width="120" height="60" as="geometry"/></mxCell><mxCell id="NzhpzaknC7OG-vmffmDY-11" value="Да" style="text;html=1;strokeColor=none;fillColor=none;align=center;verticalAlign=middle;whiteSpace=wrap;rounded=0;" parent="WIyWlLk6GJQsqaUBKTNV-1" vertex="1"><mxGeometry x="190" y="675" width="60" height="30" as="geometry"/></mxCell><mxCell id="NzhpzaknC7OG-vmffmDY-17" value="" style="edgeStyle=orthogonalEdgeStyle;rounded=0;orthogonalLoop=1;jettySize=auto;html=1;" parent="WIyWlLk6GJQsqaUBKTNV-1" source="NzhpzaknC7OG-vmffmDY-12" target="NzhpzaknC7OG-vmffmDY-16" edge="1"><mxGeometry relative="1" as="geometry"/></mxCell><mxCell id="NzhpzaknC7OG-vmffmDY-12" value="new arrOut[counter]&lt;br&gt;newCounter = 0" style="whiteSpace=wrap;html=1;" parent="WIyWlLk6GJQsqaUBKTNV-1" vertex="1"><mxGeometry x="405" y="490" width="175" height="60" as="geometry"/></mxCell><mxCell id="NzhpzaknC7OG-vmffmDY-19" value="" style="edgeStyle=orthogonalEdgeStyle;rounded=0;orthogonalLoop=1;jettySize=auto;html=1;" parent="WIyWlLk6GJQsqaUBKTNV-1" source="NzhpzaknC7OG-vmffmDY-16" target="NzhpzaknC7OG-vmffmDY-18" edge="1"><mxGeometry relative="1" as="geometry"/></mxCell><mxCell id="NzhpzaknC7OG-vmffmDY-32" value="" style="edgeStyle=orthogonalEdgeStyle;rounded=0;orthogonalLoop=1;jettySize=auto;html=1;" parent="WIyWlLk6GJQsqaUBKTNV-1" source="NzhpzaknC7OG-vmffmDY-16" target="NzhpzaknC7OG-vmffmDY-31" edge="1"><mxGeometry relative="1" as="geometry"/></mxCell><mxCell id="NzhpzaknC7OG-vmffmDY-16" value="i = 0, i &amp;lt; array.length, i++" style="shape=hexagon;perimeter=hexagonPerimeter2;whiteSpace=wrap;html=1;fixedSize=1;fillColor=#1ba1e2;strokeColor=#006EAF;fontColor=#ffffff;" parent="WIyWlLk6GJQsqaUBKTNV-1" vertex="1"><mxGeometry x="388.75" y="595" width="207.5" height="80" as="geometry"/></mxCell><mxCell id="NzhpzaknC7OG-vmffmDY-24" value="" style="edgeStyle=orthogonalEdgeStyle;rounded=0;orthogonalLoop=1;jettySize=auto;html=1;" parent="WIyWlLk6GJQsqaUBKTNV-1" source="NzhpzaknC7OG-vmffmDY-18" target="NzhpzaknC7OG-vmffmDY-23" edge="1"><mxGeometry relative="1" as="geometry"/></mxCell><mxCell id="NzhpzaknC7OG-vmffmDY-30" style="edgeStyle=orthogonalEdgeStyle;rounded=0;orthogonalLoop=1;jettySize=auto;html=1;exitX=0;exitY=0.5;exitDx=0;exitDy=0;entryX=0;entryY=0.5;entryDx=0;entryDy=0;" parent="WIyWlLk6GJQsqaUBKTNV-1" source="NzhpzaknC7OG-vmffmDY-18" target="NzhpzaknC7OG-vmffmDY-16" edge="1"><mxGeometry relative="1" as="geometry"><Array as="points"><mxPoint x="340" y="750"/><mxPoint x="340" y="635"/></Array></mxGeometry></mxCell><mxCell id="NzhpzaknC7OG-vmffmDY-18" value="array[i].length &amp;lt;= 3" style="rhombus;whiteSpace=wrap;html=1;fillColor=#a0522d;strokeColor=#6D1F00;fontColor=#ffffff;" parent="WIyWlLk6GJQsqaUBKTNV-1" vertex="1"><mxGeometry x="423.75" y="710" width="137.5" height="80" as="geometry"/></mxCell><mxCell id="NzhpzaknC7OG-vmffmDY-21" value="Нет" style="text;html=1;strokeColor=none;fillColor=none;align=center;verticalAlign=middle;whiteSpace=wrap;rounded=0;" parent="WIyWlLk6GJQsqaUBKTNV-1" vertex="1"><mxGeometry x="363.75" y="725" width="60" height="30" as="geometry"/></mxCell><mxCell id="NzhpzaknC7OG-vmffmDY-25" style="edgeStyle=orthogonalEdgeStyle;rounded=0;orthogonalLoop=1;jettySize=auto;html=1;entryX=0;entryY=0.5;entryDx=0;entryDy=0;" parent="WIyWlLk6GJQsqaUBKTNV-1" source="NzhpzaknC7OG-vmffmDY-23" target="NzhpzaknC7OG-vmffmDY-16" edge="1"><mxGeometry relative="1" as="geometry"><Array as="points"><mxPoint x="493" y="920"/><mxPoint x="340" y="920"/><mxPoint x="340" y="635"/></Array></mxGeometry></mxCell><mxCell id="NzhpzaknC7OG-vmffmDY-23" value="arrOut[newCounter] = array[i]&lt;br&gt;newCounter++" style="whiteSpace=wrap;html=1;" parent="WIyWlLk6GJQsqaUBKTNV-1" vertex="1"><mxGeometry x="378.75" y="830" width="227.5" height="60" as="geometry"/></mxCell><mxCell id="NzhpzaknC7OG-vmffmDY-26" value="Да" style="text;html=1;strokeColor=none;fillColor=none;align=center;verticalAlign=middle;whiteSpace=wrap;rounded=0;" parent="WIyWlLk6GJQsqaUBKTNV-1" vertex="1"><mxGeometry x="480" y="790" width="60" height="30" as="geometry"/></mxCell><mxCell id="NzhpzaknC7OG-vmffmDY-33" style="edgeStyle=orthogonalEdgeStyle;rounded=0;orthogonalLoop=1;jettySize=auto;html=1;entryX=0.5;entryY=0;entryDx=0;entryDy=0;" parent="WIyWlLk6GJQsqaUBKTNV-1" source="NzhpzaknC7OG-vmffmDY-31" target="ebxPDyALgDICZ6asir6X-7" edge="1"><mxGeometry relative="1" as="geometry"/></mxCell><mxCell id="NzhpzaknC7OG-vmffmDY-31" value="arrOut[]" style="shape=document;whiteSpace=wrap;html=1;boundedLbl=1;fillColor=#647687;strokeColor=#314354;fontColor=#ffffff;" parent="WIyWlLk6GJQsqaUBKTNV-1" vertex="1"><mxGeometry x="680" y="700" width="120" height="80" as="geometry"/></mxCell></root></mxGraphModel></diagram></mxfile>